<?xml version="1.0" encoding="UTF-8" standalone="no"?>
<!-- Created with Inkscape (http://www.inkscape.org/) -->

<svg
   version="1.1"
   id="svg1"
   width="150"
   height="70"
   viewBox="0 0 150 70"
   sodipodi:docname="logo-svg-white.svg"
   inkscape:version="1.4.2 (ebf0e940, 2025-05-08)"
   xmlns:inkscape="http://www.inkscape.org/namespaces/inkscape"
   xmlns:sodipodi="http://sodipodi.sourceforge.net/DTD/sodipodi-0.dtd"
   xmlns="http://www.w3.org/2000/svg"
   xmlns:svg="http://www.w3.org/2000/svg">
  <defs
     id="defs1" />
  <sodipodi:namedview
     id="namedview1"
     pagecolor="#ffffff"
     bordercolor="#000000"
     borderopacity="0.25"
     inkscape:showpageshadow="2"
     inkscape:pageopacity="0.0"
     inkscape:pagecheckerboard="0"
     inkscape:deskcolor="#d1d1d1"
     inkscape:zoom="3.3962025"
     inkscape:cx="102.76183"
     inkscape:cy="44.903094"
     inkscape:window-width="1440"
     inkscape:window-height="848"
     inkscape:window-x="0"
     inkscape:window-y="52"
     inkscape:window-maximized="0"
     inkscape:current-layer="g1" />
  <g
     inkscape:groupmode="layer"
     inkscape:label="Image"
     id="g1">
    <path
       style="fill:#ffffff"
       d="M 8.36079,34.750032 V 9.4166977 h 8.579867 c 9.858382,0 14.019912,1.2752093 17.958761,5.5030683 3.427472,3.678959 3.785265,12.525733 0.646837,15.993657 -1.984235,2.192556 -1.933447,2.645957 0.666667,5.951466 3.315612,4.215117 3.60643,9.819544 0.791964,15.262121 -2.960987,5.725919 -8.355888,7.956356 -19.24455,7.956356 H 8.36079 Z M 29.647211,48.171021 C 32.942342,42.014012 28.713174,36.083365 21.027456,36.083365 H 16.36079 v 7.333334 7.333333 h 5.953088 c 4.521036,0 6.285114,-0.620397 7.333333,-2.579011 z M 28.094123,27.816698 c 2.056667,-2.056667 2.056667,-6.743332 0,-8.8 -0.88,-0.88 -3.88,-1.6 -6.666667,-1.6 H 16.36079 v 6 6.000001 h 5.066666 c 2.786667,0 5.786667,-0.720001 6.666667,-1.600001 z M 67.15599,58.397043 c -7.19111,-3.695652 -8.7952,-7.975479 -8.7952,-23.466198 0,-16.176062 1.51006,-20.052011 9.25026,-23.743056 9.11756,-4.3478581 22.08307,2.380402 22.08307,11.459679 0,3.487179 -0.5,4.102564 -3.33333,4.102564 -2.07408,0 -3.33334,-0.755556 -3.33334,-2 0,-3.3121 -5.07647,-7.333334 -9.25772,-7.333334 -6.21096,0 -8.07561,4.002246 -8.07561,17.333334 0,13.646621 1.81549,17.333334 8.53562,17.333334 5.44096,0 8.79771,-3.473997 8.79771,-9.104988 0,-3.809273 -0.39644,-4.228346 -4,-4.228346 -3.37777,0 -4,-0.518518 -4,-3.333333 0,-3.151516 0.4,-3.333334 7.33334,-3.333334 h 7.33333 v 9.036659 c 0,10.033163 -1.74538,13.728951 -8.01472,16.970957 -4.66191,2.410763 -10.2009,2.52749 -14.52341,0.306062 z m 49.62323,-0.83592 c -4.9232,-3.09235 -7.0851,-6.567847 -7.0851,-11.390102 0,-5.267831 5.41086,-4.631242 8,0.941201 1.64069,3.531166 2.86847,4.377045 6.83416,4.708411 5.62245,0.469801 9.16584,-2.288535 9.16584,-7.135102 0,-3.639497 -3.81089,-6.550467 -10.36527,-7.917573 -2.4009,-0.500777 -6.1509,-2.41301 -8.33334,-4.249406 -3.2623,-2.745047 -3.96806,-4.352643 -3.96806,-9.03856 0,-14.1335329 19.3602,-19.0684141 26.81938,-6.836215 3.74758,6.145596 3.30253,8.772921 -1.48604,8.772921 -2.96297,0 -4,-0.622222 -4,-2.4 0,-5.403441 -8.34599,-7.730201 -12.57143,-3.504762 -4.33178,4.331773 -1.13829,8.669011 8.21683,11.159727 8.11453,2.160417 12.37139,6.311748 13.25914,12.930424 0.65921,4.914729 0.24643,6.052761 -3.79491,10.462623 -5.76691,6.292792 -14.01914,7.687258 -20.6912,3.496413 z"
       id="path1" />
  </g>
</svg>
